{
    "asset" : {
        "generator" : "Khronos glTF Blender I/O v1.6.16",
        "version" : "2.0"
    },
    "scene" : 0,
    "scenes" : [
        {
            "name" : "Scene",
            "nodes" : [
                0,
                1
            ]
        }
    ],
    "nodes" : [
        {
            "mesh" : 0,
            "name" : "Text.001",
            "rotation" : [
                0.7071068286895752,
                0,
                0,
                0.7071068286895752
            ],
            "scale" : [
                0.10587332397699356,
                0.10587332397699356,
                0.10587332397699356
            ],
            "translation" : [
                -0.17286281287670135,
                0,
                0.2383911907672882
            ]
        },
        {
            "mesh" : 1,
            "name" : "Cube",
            "scale" : [
                0.10000000149011612,
                0.10000000149011612,
                0.10000000149011612
            ],
            "translation" : [
                0,
                0.08939068019390106,
                0
            ]
        }
    ],
    "animations" : [
        {
            "channels" : [
                {
                    "sampler" : 0,
                    "target" : {
                        "node" : 1,
                        "path" : "translation"
                    }
                },
                {
                    "sampler" : 1,
                    "target" : {
                        "node" : 1,
                        "path" : "rotation"
                    }
                },
                {
                    "sampler" : 2,
                    "target" : {
                        "node" : 1,
                        "path" : "scale"
                    }
                }
            ],
            "name" : "CubeAction",
            "samplers" : [
                {
                    "input" : 8,
                    "interpolation" : "LINEAR",
                    "output" : 9
                },
                {
                    "input" : 10,
                    "interpolation" : "LINEAR",
                    "output" : 11
                },
                {
                    "input" : 12,
                    "interpolation" : "LINEAR",
                    "output" : 13
                }
            ]
        }
    ],
    "materials" : [
        {
            "doubleSided" : true,
            "name" : "Text",
            "pbrMetallicRoughness" : {
                "baseColorFactor" : [
                    0.0012141070328652859,
                    0.006995412055402994,
                    0.013702083379030228,
                    1
                ],
                "metallicFactor" : 0,
                "roughnessFactor" : 0.4000000059604645
            }
        },
        {
            "doubleSided" : true,
            "name" : "Material",
            "pbrMetallicRoughness" : {
                "baseColorFactor" : [
                    0.799103319644928,
                    0.0684780701994896,
                    0.05780545249581337,
                    1
                ],
                "metallicFactor" : 0,
                "roughnessFactor" : 0.5
            }
        }
    ],
    "meshes" : [
        {
            "name" : "Text.001",
            "primitives" : [
                {
                    "attributes" : {
                        "POSITION" : 0,
                        "NORMAL" : 1,
                        "TEXCOORD_0" : 2
                    },
                    "indices" : 3,
                    "material" : 0
                }
            ]
        },
        {
            "name" : "Cube",
            "primitives" : [
                {
                    "attributes" : {
                        "POSITION" : 4,
                        "NORMAL" : 5,
                        "TEXCOORD_0" : 6
                    },
                    "indices" : 7,
                    "material" : 1
                }
            ]
        }
    ],
    "accessors" : [
        {
            "bufferView" : 0,
            "componentType" : 5126,
            "count" : 4173,
            "max" : [
                3.2120003700256348,
                0,
                0.23000000417232513
            ],
            "min" : [
                0.07000000029802322,
                -0.05000000074505806,
                -0.6820000410079956
            ],
            "type" : "VEC3"
        },
        {
            "bufferView" : 1,
            "componentType" : 5126,
            "count" : 4173,
            "type" : "VEC3"
        },
        {
            "bufferView" : 2,
            "componentType" : 5126,
            "count" : 4173,
            "type" : "VEC2"
        },
        {
            "bufferView" : 3,
            "componentType" : 5123,
            "count" : 6300,
            "type" : "SCALAR"
        },
        {
            "bufferView" : 4,
            "componentType" : 5126,
            "count" : 16,
            "max" : [
                1,
                1,
                1
            ],
            "min" : [
                -1,
                -1,
                -1
            ],
            "type" : "VEC3"
        },
        {
            "bufferView" : 5,
            "componentType" : 5126,
            "count" : 16,
            "type" : "VEC3"
        },
        {
            "bufferView" : 6,
            "componentType" : 5126,
            "count" : 16,
            "type" : "VEC2"
        },
        {
            "bufferView" : 7,
            "componentType" : 5123,
            "count" : 18,
            "type" : "SCALAR"
        },
        {
            "bufferView" : 8,
            "componentType" : 5126,
            "count" : 218,
            "max" : [
                9.041666666666666
            ],
            "min" : [
                0
            ],
            "type" : "SCALAR"
        },
        {
            "bufferView" : 9,
            "componentType" : 5126,
            "count" : 218,
            "type" : "VEC3"
        },
        {
            "bufferView" : 10,
            "componentType" : 5126,
            "count" : 180,
            "max" : [
                7.458333333333333
            ],
            "min" : [
                0
            ],
            "type" : "SCALAR"
        },
        {
            "bufferView" : 11,
            "componentType" : 5126,
            "count" : 180,
            "type" : "VEC4"
        },
        {
            "bufferView" : 12,
            "componentType" : 5126,
            "count" : 39,
            "max" : [
                1.5833333333333333
            ],
            "min" : [
                0
            ],
            "type" : "SCALAR"
        },
        {
            "bufferView" : 13,
            "componentType" : 5126,
            "count" : 39,
            "type" : "VEC3"
        }
    ],
    "bufferViews" : [
        {
            "buffer" : 0,
            "byteLength" : 50076,
            "byteOffset" : 0
        },
        {
            "buffer" : 0,
            "byteLength" : 50076,
            "byteOffset" : 50076
        },
        {
            "buffer" : 0,
            "byteLength" : 33384,
            "byteOffset" : 100152
        },
        {
            "buffer" : 0,
            "byteLength" : 12600,
            "byteOffset" : 133536
        },
        {
            "buffer" : 0,
            "byteLength" : 192,
            "byteOffset" : 146136
        },
        {
            "buffer" : 0,
            "byteLength" : 192,
            "byteOffset" : 146328
        },
        {
            "buffer" : 0,
            "byteLength" : 128,
            "byteOffset" : 146520
        },
        {
            "buffer" : 0,
            "byteLength" : 36,
            "byteOffset" : 146648
        },
        {
            "buffer" : 0,
            "byteLength" : 872,
            "byteOffset" : 146684
        },
        {
            "buffer" : 0,
            "byteLength" : 2616,
            "byteOffset" : 147556
        },
        {
            "buffer" : 0,
            "byteLength" : 720,
            "byteOffset" : 150172
        },
        {
            "buffer" : 0,
            "byteLength" : 2880,
            "byteOffset" : 150892
        },
        {
            "buffer" : 0,
            "byteLength" : 156,
            "byteOffset" : 153772
        },
        {
            "buffer" : 0,
            "byteLength" : 468,
            "byteOffset" : 153928
        }
    ],
    "buffers" : [
        {
            "byteLength" : 154396,
            "uri" : "data:application/octet-stream;base64,"
        }
    ]
}
